<?xml version="1.0" encoding="UTF-8" standalone="no"?>
<!-- Created with Inkscape (http://www.inkscape.org/) -->

<svg
   version="1.1"
   id="svg1"
   width="24"
   height="24"
   viewBox="0 0 24 24"
   sodipodi:docname="jellyfix.svg"
   xml:space="preserve"
   inkscape:version="1.4.2 (ebf0e940d0, 2025-05-08)"
   inkscape:export-filename="/home/narayans/Downloads/zash3.svg"
   inkscape:export-xdpi="960"
   inkscape:export-ydpi="960"
   xmlns:inkscape="http://www.inkscape.org/namespaces/inkscape"
   xmlns:sodipodi="http://sodipodi.sourceforge.net/DTD/sodipodi-0.dtd"
   xmlns:xlink="http://www.w3.org/1999/xlink"
   xmlns="http://www.w3.org/2000/svg"
   xmlns:svg="http://www.w3.org/2000/svg"><defs
     id="defs1"><linearGradient
       id="linearGradient3744"
       inkscape:collect="always"><stop
         style="stop-color:#179ad9;stop-opacity:1;"
         offset="0"
         id="stop3744" /><stop
         style="stop-color:#179ad9;stop-opacity:0;"
         offset="1"
         id="stop3745" /></linearGradient><linearGradient
       x1="22.1875"
       y1="23.0625"
       x2="3.2276375"
       y2="3.0725682"
       gradientUnits="userSpaceOnUse"
       gradientTransform="scale(0.75)"
       spreadMethod="pad"
       id="linearGradient44"><stop
         style="stop-opacity:1;stop-color:#a35fc4"
         offset="0"
         id="stop43" /><stop
         style="stop-opacity:1;stop-color:#3090d5"
         offset="1"
         id="stop44" /></linearGradient><linearGradient
       id="linearGradient41"
       inkscape:swatch="gradient"><stop
         style="stop-color:#000000;stop-opacity:1;"
         offset="0"
         id="stop261" /><stop
         style="stop-color:#000000;stop-opacity:0;"
         offset="1"
         id="stop262" /></linearGradient><linearGradient
       x1="22.1875"
       y1="23.0625"
       x2="3.2276375"
       y2="3.0725682"
       gradientUnits="userSpaceOnUse"
       gradientTransform="scale(0.75)"
       spreadMethod="pad"
       id="linearGradient3"><stop
         style="stop-opacity:1;stop-color:#1a1a1a"
         offset="0"
         id="stop1" /><stop
         style="stop-opacity:1;stop-color:#333333"
         offset="1"
         id="stop2" /></linearGradient><linearGradient
       inkscape:collect="always"
       xlink:href="#linearGradient44"
       id="linearGradient43"
       x1="8.9589405"
       y1="18.570232"
       x2="20.744732"
       y2="29.486223"
       gradientUnits="userSpaceOnUse" /><linearGradient
       inkscape:collect="always"
       xlink:href="#linearGradient44"
       id="linearGradient45"
       gradientUnits="userSpaceOnUse"
       x1="8.9589405"
       y1="18.570232"
       x2="20.744732"
       y2="29.486223" /><linearGradient
       inkscape:collect="always"
       xlink:href="#linearGradient44"
       id="linearGradient47"
       gradientUnits="userSpaceOnUse"
       x1="8.9589405"
       y1="18.570232"
       x2="20.744732"
       y2="29.486223" /><linearGradient
       inkscape:collect="always"
       xlink:href="#linearGradient44"
       id="linearGradient48"
       gradientUnits="userSpaceOnUse"
       x1="8.9589405"
       y1="18.570232"
       x2="20.744732"
       y2="29.486223" /><linearGradient
       inkscape:collect="always"
       xlink:href="#linearGradient44"
       id="linearGradient49"
       gradientUnits="userSpaceOnUse"
       x1="8.9589405"
       y1="18.570232"
       x2="20.744732"
       y2="29.486223" /><linearGradient
       inkscape:collect="always"
       xlink:href="#linearGradient3744"
       id="linearGradient3745"
       x1="26.204945"
       y1="11.055333"
       x2="33.52776"
       y2="18.200264"
       gradientUnits="userSpaceOnUse" /></defs><sodipodi:namedview
     id="namedview1"
     pagecolor="#ffffff"
     bordercolor="#000000"
     borderopacity="0.25"
     inkscape:showpageshadow="2"
     inkscape:pageopacity="0.0"
     inkscape:pagecheckerboard="0"
     inkscape:deskcolor="#d1d1d1"
     inkscape:zoom="5.7484473"
     inkscape:cx="-32.704483"
     inkscape:cy="3.3922203"
     inkscape:window-width="1920"
     inkscape:window-height="1005"
     inkscape:window-x="0"
     inkscape:window-y="0"
     inkscape:window-maximized="1"
     inkscape:current-layer="g1"><inkscape:page
       x="0"
       y="0"
       width="24"
       height="24"
       id="page2"
       margin="0"
       bleed="0" /></sodipodi:namedview><g
     id="g1"
     inkscape:groupmode="layer"
     inkscape:label="1"><path
       id="path3"
       d="m 5.699,0.75 h 6.602 c 2.742,0 4.949,2.207 4.949,4.949 v 6.602 c 0,2.742 -2.207,4.949 -4.949,4.949 H 5.699 C 2.957,17.25 0.75,15.043 0.75,12.301 V 5.699 C 0.75,2.957 2.957,0.75 5.699,0.75 Z"
       style="fill:url(#linearGradient3);stroke:none"
       transform="scale(1.3333333)" /><g
       id="g3721"
       transform="matrix(1.9884448,0,0,1.9884448,-47.797569,-17.337068)"
       style="fill:#179ad9;fill-opacity:1"><path
         style="fill:#179ad9;fill-opacity:1"
         d="m 29.589324,18.168162 c -1.406931,-0.04498 -2.442847,-0.235477 -2.827987,-0.520049 -0.09633,-0.07117 -0.154526,-0.155077 -0.175144,-0.252501 -0.08963,-0.423491 0.241466,-1.440633 0.891969,-2.740208 0.799594,-1.597431 1.767341,-3.002023 2.326624,-3.376873 0.08845,-0.05928 0.202392,-0.103906 0.265309,-0.103906 0.06331,0 0.175755,0.04384 0.26368,0.102801 0.120844,0.08104 0.300049,0.248059 0.457119,0.426047 0.563917,0.63901 1.279384,1.771733 1.880737,2.977572 0.67032,1.344133 0.993787,2.366508 0.872733,2.758435 -0.06053,0.195958 -0.339008,0.35478 -0.844173,0.48144 -0.502479,0.125987 -1.14966,0.204574 -1.985864,0.241145 -0.202353,0.0088 -0.917653,0.01273 -1.125003,0.0061 z m 0.807695,-1.032075 c 0.934236,-0.03168 1.604049,-0.158036 1.8529,-0.349522 0.08008,-0.06162 0.105232,-0.125069 0.104096,-0.262567 -0.0026,-0.317489 -0.206219,-0.89862 -0.576051,-1.644235 -0.43847,-0.883996 -0.971221,-1.707056 -1.348564,-2.083429 -0.101932,-0.10167 -0.169613,-0.155829 -0.240711,-0.192621 -0.09195,-0.04758 -0.145235,-0.04758 -0.237189,0 -0.359488,0.186027 -1.034994,1.153403 -1.59605,2.285666 -0.309912,0.62543 -0.502548,1.136411 -0.55835,1.481067 -0.01556,0.09611 -0.01571,0.230331 -3.07e-4,0.281758 0.01563,0.0522 0.04388,0.09454 0.08597,0.128821 0.171947,0.140067 0.554913,0.244902 1.120022,0.306601 0.419539,0.04581 0.939581,0.06388 1.394235,0.04846 z m -0.597915,-0.961512 c -13.674144,-9.0622949 -13.674144,-9.0622949 0,0 z"
         id="path3729"
         sodipodi:nodetypes="sccsssccscscsssscssscsscccsscc" /><path
         style="fill:#179ad9;fill-opacity:1"
         d="m 29.598939,18.157892 c -0.442947,-0.01564 -0.758271,-0.03602 -1.083336,-0.07001 -1.062396,-0.111076 -1.737262,-0.323119 -1.883494,-0.591796 -0.05766,-0.105935 -0.06439,-0.300041 -0.01949,-0.561832 0.101874,-0.59393 0.521869,-1.630343 1.099407,-2.712982 0.813983,-1.525873 1.686373,-2.721941 2.172431,-2.978457 0.158835,-0.08383 0.263524,-0.07366 0.441201,0.04284 0.170561,0.111833 0.396818,0.338948 0.639751,0.642174 0.409797,0.511506 0.907945,1.282731 1.349805,2.089749 0.854728,1.561084 1.348919,2.923114 1.229716,3.389192 -0.01947,0.07615 -0.0428,0.117795 -0.09662,0.172518 -0.19186,0.19506 -0.673559,0.353335 -1.39103,0.457058 -0.37108,0.05365 -0.735602,0.08657 -1.253208,0.11319 -0.124475,0.0064 -1.074032,0.01298 -1.205132,0.0084 z m 0.891029,-1.015473 c 0.942841,-0.03792 1.610145,-0.18093 1.803005,-0.386406 0.03961,-0.04221 0.05656,-0.07823 0.06645,-0.141289 0.05404,-0.344503 -0.294029,-1.268493 -0.864862,-2.29586 -0.382131,-0.687748 -0.77689,-1.255884 -1.076019,-1.548606 -0.09446,-0.09244 -0.167465,-0.148789 -0.237784,-0.183543 -0.04651,-0.02299 -0.05234,-0.02427 -0.110661,-0.02427 -0.05805,0 -0.06429,0.0013 -0.109308,0.02364 -0.07766,0.03845 -0.150186,0.09627 -0.262762,0.209471 -0.183366,0.184384 -0.369445,0.423148 -0.591679,0.759201 -0.650334,0.98341 -1.234764,2.233419 -1.32119,2.825827 -0.01164,0.07979 -0.01301,0.208464 -0.0027,0.256875 0.02657,0.125119 0.138426,0.213352 0.374198,0.295171 0.473861,0.164444 1.396992,0.247439 2.33334,0.209783 z"
         id="path3728"
         sodipodi:nodetypes="ccscscsssccsscccccsssscssscscc" /><path
         style="fill:url(#linearGradient3745);fill-opacity:1"
         d="m 29.598939,18.157892 c -0.442947,-0.01564 -0.758271,-0.03602 -1.083336,-0.07001 -1.062396,-0.111076 -1.737262,-0.323119 -1.883494,-0.591796 -0.05583,-0.102579 -0.06409,-0.297721 -0.02297,-0.542601 0.01716,-0.10222 0.05147,-0.253206 0.05753,-0.253206 0.0027,0 6.9e-4,0.01779 -0.0044,0.03954 -0.0051,0.02174 -0.0084,0.04151 -0.0074,0.04391 9.78e-4,0.0024 0.368126,-0.630433 0.815884,-1.406313 0.447757,-0.77588 1.1598,-2.009346 1.582317,-2.741036 0.862264,-1.493218 0.785044,-1.358477 0.772905,-1.348648 -0.01659,0.01343 -0.0773,0.04743 -0.07338,0.04109 0.0062,-0.01005 0.105821,-0.07419 0.147654,-0.09507 0.147193,-0.07347 0.254128,-0.06043 0.42544,0.0519 0.170561,0.111833 0.396818,0.338948 0.639751,0.642174 0.409797,0.511506 0.907945,1.282731 1.349805,2.089749 0.854728,1.561084 1.348919,2.923114 1.229716,3.389192 -0.01947,0.07615 -0.0428,0.117795 -0.09662,0.172518 -0.19186,0.19506 -0.673559,0.353335 -1.39103,0.457058 -0.37108,0.05365 -0.735602,0.08657 -1.253208,0.11319 -0.124475,0.0064 -1.074032,0.01298 -1.205132,0.0084 z m 0.891029,-1.015473 c 0.942841,-0.03792 1.610145,-0.18093 1.803005,-0.386406 0.03961,-0.04221 0.05656,-0.07823 0.06645,-0.141289 0.05404,-0.344503 -0.294029,-1.268493 -0.864862,-2.29586 -0.382131,-0.687748 -0.77689,-1.255884 -1.076019,-1.548606 -0.09446,-0.09244 -0.167465,-0.148789 -0.237784,-0.183543 -0.04651,-0.02299 -0.05234,-0.02427 -0.110661,-0.02427 -0.05805,0 -0.06429,0.0013 -0.109308,0.02364 -0.07766,0.03845 -0.150186,0.09627 -0.262762,0.209471 -0.183366,0.184384 -0.369445,0.423148 -0.591679,0.759201 -0.650334,0.98341 -1.234764,2.233419 -1.32119,2.825827 -0.01164,0.07979 -0.01301,0.208464 -0.0027,0.256875 0.02657,0.125119 0.138426,0.213352 0.374198,0.295171 0.473861,0.164444 1.396992,0.247439 2.33334,0.209783 z m -3.823729,-0.458164 c 0,-0.0053 0.0028,-0.0096 0.0062,-0.0096 0.0034,0 0.0045,0.0043 0.0025,0.0096 -0.002,0.0053 -0.0048,0.0096 -0.0062,0.0096 -0.0014,0 -0.0025,-0.0043 -0.0025,-0.0096 z m 0.0069,-0.02617 c 3.07e-4,-0.0075 0.0018,-0.009 0.0039,-0.0039 0.0019,0.0046 0.0016,0.01016 -5.06e-4,0.01229 -0.0021,0.0021 -0.0036,-0.0017 -0.0034,-0.0084 z m 0.01923,-0.07051 c 3.08e-4,-0.0075 0.0018,-0.009 0.0039,-0.0039 0.0019,0.0046 0.0016,0.01016 -5.06e-4,0.01229 -0.0021,0.0021 -0.0036,-0.0017 -0.0034,-0.0084 z m 3.005913,-5.216644 c 0,-0.0013 0.005,-0.0064 0.01122,-0.01122 0.01017,-0.008 0.01039,-0.0077 0.0024,0.0024 -0.0084,0.01068 -0.01364,0.01407 -0.01364,0.0088 z m 0.02564,-0.01923 c 0,-0.0013 0.005,-0.0064 0.01122,-0.01122 0.01017,-0.008 0.01039,-0.0077 0.0024,0.0024 -0.0084,0.01068 -0.01364,0.01407 -0.01364,0.0088 z"
         id="path3727"
         sodipodi:nodetypes="ccscsccssscscssccsscccccsssscssscsccssssscccccccccccccccccccc" /><path
         style="fill:#179ad9;fill-opacity:1"
         d="m 29.598939,18.157892 c -0.565211,-0.01996 -0.96679,-0.05055 -1.384619,-0.105472 -0.679353,-0.08929 -1.197503,-0.234432 -1.4305,-0.400695 -0.07781,-0.05552 -0.149632,-0.144763 -0.149632,-0.185917 0,-0.0054 0.312596,-0.551208 0.694659,-1.212969 1.76082,-3.049878 2.06139,-3.570474 2.461704,-4.26374 0.23502,-0.40701 0.428743,-0.741451 0.430496,-0.743203 0.0069,-0.0069 0.07295,0.02218 0.121484,0.0536 0.085,0.05503 0.147817,0.109014 0.275854,0.237075 0.269455,0.269504 0.547215,0.627271 0.903465,1.163699 0.393658,0.592756 0.769765,1.243818 1.118338,1.935903 0.661407,1.313211 1.006896,2.3712 0.904746,2.7706 -0.01947,0.07615 -0.0428,0.117795 -0.09662,0.172518 -0.19186,0.19506 -0.673559,0.353335 -1.39103,0.457058 -0.37108,0.05365 -0.735602,0.08657 -1.253208,0.11319 -0.124475,0.0064 -1.074032,0.01298 -1.205132,0.0084 z m 0.891029,-1.015473 c 0.942841,-0.03792 1.610145,-0.18093 1.803005,-0.386406 0.03961,-0.04221 0.05656,-0.07823 0.06645,-0.141289 0.05404,-0.344503 -0.294029,-1.268493 -0.864862,-2.29586 -0.382131,-0.687748 -0.77689,-1.255884 -1.076019,-1.548606 -0.09446,-0.09244 -0.167465,-0.148789 -0.237784,-0.183543 -0.04651,-0.02299 -0.05234,-0.02427 -0.110661,-0.02427 -0.05805,0 -0.06429,0.0013 -0.109308,0.02364 -0.07766,0.03845 -0.150186,0.09627 -0.262762,0.209471 -0.142727,0.14352 -0.255279,0.28023 -0.422908,0.513684 -0.615467,0.857151 -1.280352,2.178683 -1.451304,2.884623 -0.03619,0.149464 -0.0486,0.234255 -0.0486,0.332239 0,0.120221 0.0156,0.173003 0.06855,0.231891 0.19803,0.220257 0.970064,0.372624 1.976329,0.390045 0.282361,0.0049 0.44173,0.0036 0.669874,-0.0056 z"
         id="path3726"
         sodipodi:nodetypes="cccscssssssccsscccccsssscsscscccc" /><path
         style="fill:#179ad9;fill-opacity:1"
         d="m 29.598939,18.157892 c -0.683611,-0.02414 -1.202728,-0.06999 -1.665563,-0.147091 -0.202313,-0.0337 -0.444869,-0.08825 -0.460088,-0.10347 -0.0046,-0.0046 0.553517,-0.980432 0.570344,-0.997259 0.0046,-0.0046 0.02902,5.07e-4 0.07906,0.01653 0.466385,0.149312 1.098281,0.222521 1.922393,0.22272 0.767332,1.86e-4 1.404725,-0.06552 1.835546,-0.189225 0.255397,-0.07333 0.41483,-0.167071 0.458858,-0.269786 0.04156,-0.09695 0.03005,-0.280919 -0.03266,-0.52205 -0.168571,-0.648195 -0.698022,-1.735782 -1.265419,-2.599394 -0.190358,-0.289736 -0.361226,-0.516885 -0.56629,-0.752818 -0.02308,-0.02655 -0.03903,-0.05041 -0.03709,-0.05547 0.0045,-0.01165 0.484706,-0.844037 0.490765,-0.850637 0.0066,-0.0072 0.03581,0.02409 0.118368,0.126867 0.35033,0.436105 0.84769,1.213006 1.26806,1.980774 0.854728,1.561084 1.348919,2.923114 1.229716,3.389192 -0.01947,0.07615 -0.0428,0.117795 -0.09662,0.172518 -0.19186,0.19506 -0.673559,0.353335 -1.39103,0.457058 -0.37108,0.05365 -0.735602,0.08657 -1.253208,0.11319 -0.124475,0.0064 -1.074032,0.01298 -1.205132,0.0084 z"
         id="path3725"
         sodipodi:nodetypes="cssscscsssscccsccsscc" /><path
         style="fill:#179ad9;fill-opacity:1"
         d="m 29.518811,18.155114 c -0.204963,-0.0082 -0.466217,-0.02432 -0.621797,-0.03848 -0.196589,-0.01789 -0.217949,-0.02026 -0.217949,-0.0242 0,-0.0019 0.124689,-0.219615 0.277088,-0.483728 l 0.277087,-0.480206 0.05144,0.0039 c 0.245674,0.01851 0.92217,0.02456 1.211699,0.01084 0.868187,-0.04114 1.45551,-0.15176 1.721158,-0.324177 0.05224,-0.03391 0.105321,-0.08994 0.121949,-0.12873 0.100869,-0.235316 -0.107221,-0.916267 -0.558175,-1.826568 -0.160575,-0.324138 -0.269462,-0.524363 -0.556029,-1.022439 -0.0213,-0.03702 -0.03969,-0.07207 -0.04087,-0.07789 -0.0028,-0.01362 0.469801,-0.832645 0.477626,-0.827809 0.0032,0.002 0.04114,0.05733 0.08421,0.122938 0.176198,0.268391 0.429301,0.698565 0.626503,1.064809 0.827969,1.537699 1.288634,2.828082 1.172177,3.283422 -0.01947,0.07615 -0.0428,0.117795 -0.09662,0.172518 -0.19186,0.19506 -0.673559,0.353335 -1.39103,0.457058 -0.37108,0.05365 -0.735602,0.08657 -1.253208,0.11319 -0.17094,0.0088 -1.102821,0.01283 -1.28526,0.0056 z"
         id="path3724"
         sodipodi:nodetypes="csssccssssscccsccsccc" /><path
         style="fill:#179ad9;fill-opacity:1"
         d="m 29.714324,18.154326 c -0.09872,-0.003 -0.184279,-0.0076 -0.190136,-0.01021 -0.0089,-0.0039 0.03623,-0.08592 0.270631,-0.491908 l 0.281281,-0.487181 0.09475,-0.0043 c 0.05212,-0.0023 0.171196,-0.0075 0.264626,-0.01142 0.763275,-0.03212 1.370176,-0.130736 1.676988,-0.272492 0.113631,-0.0525 0.199944,-0.123384 0.226945,-0.186375 0.09537,-0.222482 -0.08616,-0.848403 -0.495397,-1.708148 -0.0193,-0.04055 -0.07688,-0.158815 -0.127956,-0.262822 -0.05108,-0.104006 -0.09493,-0.195651 -0.09745,-0.203655 -0.0037,-0.01174 0.04225,-0.09567 0.237392,-0.433635 0.182494,-0.316062 0.243791,-0.417269 0.249356,-0.411704 0.0091,0.0091 0.08939,0.142198 0.145581,0.241349 0.518904,0.915599 0.967149,1.90672 1.172151,2.591761 0.147383,0.492502 0.176899,0.812587 0.09126,0.989654 -0.04756,0.09832 -0.191798,0.202293 -0.402056,0.2898 -0.624684,0.259986 -2.026527,0.413147 -3.397967,0.37125 z"
         id="path3723"
         sodipodi:nodetypes="ccscccsssccsscscscc" /><path
         style="fill:#179ad9;fill-opacity:1"
         d="m 30.467532,18.146049 c 0,-0.0027 0.132913,-0.235127 0.295363,-0.516575 0.259131,-0.448949 0.297466,-0.512143 0.312501,-0.515152 0.0094,-0.0019 0.06618,-0.0095 0.126112,-0.01702 0.464911,-0.05795 0.833583,-0.156289 1.009826,-0.269344 0.150874,-0.09678 0.182917,-0.203951 0.140715,-0.470632 -0.02851,-0.180142 -0.118172,-0.474305 -0.240307,-0.788371 -0.04796,-0.123336 -0.06102,-0.16337 -0.05677,-0.174107 0.003,-0.0077 0.117967,-0.208562 0.255408,-0.446428 l 0.249894,-0.432484 0.01435,0.01945 c 0.01789,0.02425 0.211248,0.407219 0.290381,0.575142 0.381697,0.809966 0.620034,1.487793 0.682954,1.942313 0.01476,0.106629 0.01495,0.267309 3.99e-4,0.336539 -0.03417,0.162562 -0.151617,0.270965 -0.415844,0.383824 -0.382038,0.163178 -1.084915,0.290421 -1.914978,0.346673 -0.27498,0.01863 -0.750002,0.03521 -0.750002,0.02617 z"
         id="path3722" /><path
         style="fill:#179ad9;fill-opacity:1"
         d="m 31.699719,18.056402 c 0.01057,-0.02007 1.370256,-2.376293 1.381644,-2.394269 l 0.01,-0.01571 0.01687,0.03494 c 0.09816,0.203355 0.282024,0.712797 0.352701,0.97725 0.108767,0.40697 0.124976,0.694572 0.0472,0.837474 -0.06171,0.11338 -0.219684,0.217427 -0.470029,0.309575 -0.295677,0.108835 -0.796912,0.210396 -1.262701,0.255851 -0.08246,0.008 -0.08256,0.008 -0.07563,-0.0051 z"
         id="path3721" /></g><g
       id="g3745"
       transform="translate(1.7849898,-1.7836205)"><g
         id="g39"
         transform="matrix(0.8036416,0,0,0.8036416,0.64199565,-2.7439626)"
         style="fill:url(#linearGradient43);fill-opacity:1"><path
           style="fill:url(#linearGradient45);fill-opacity:1;stroke:none"
           d="m 12.579686,18.967532 0.08333,0.08333 -0.08333,-0.08333 m -3.0388887,5.255556 0.011111,0.0056 -0.011111,-0.0056 m 0.066667,0.01667 0.011111,0.0056 -0.011111,-0.0056 m 0.055556,0.01111 0.016667,0.01667 -0.016667,-0.01667 m -1.6,2.45 v 0.01667 h 0.05 l -0.05,-0.01667 m 0.1111109,0.02222 0.011111,0.0056 -0.011111,-0.0056 m -1.5,2.583334 0.011111,0.0056 -0.011111,-0.0056 m 0.1055557,0.01111 0.016667,0.01667 z"
           id="path43" /><path
           style="fill:url(#linearGradient47);fill-opacity:1;stroke:none"
           d="m 15.096353,14.550865 0.05,0.05 -0.05,-0.05 m 0.05,0.06667 0.03333,0.03333 -0.03333,-0.03333 m 0.03333,0.05 0.03333,0.03333 -0.03333,-0.03333 m -1.366666,2.15 0.03333,0.03333 -0.03333,-0.03333 m 0.05,0.06667 0.03333,0.03333 -0.03333,-0.03333 m 0.03333,0.05 0.01667,0.01667 -0.01667,-0.01667"
           id="path41"
           sodipodi:nodetypes="cccccccccccccccccc" /><path
           style="fill:url(#linearGradient48);fill-opacity:1;stroke:none"
           d="m 15.06302,14.517532 c -0.246196,0.57133 -0.637468,1.108834 -0.945319,1.65 -0.07929,0.139376 -0.161022,0.277386 -0.240522,0.416666 -0.02946,0.05161 -0.08667,0.120351 -0.07688,0.183334 0.02927,0.188347 0.279177,0.426504 0.38489,0.583333 0.313314,0.464816 0.616092,0.935974 0.904501,1.416667 0.890058,1.483465 1.700638,3.041914 2.30135,4.666666 0.211711,0.572616 0.470983,1.231321 0.471978,1.85 4.24e-4,0.264032 0.0025,0.515654 -0.201505,0.713825 -0.272671,0.264819 -0.674559,0.395421 -1.031829,0.497994 -0.770192,0.221124 -1.558283,0.299218 -2.35,0.39294 -0.609985,0.07221 -1.235757,0.09524 -1.85,0.09524 -0.238392,0 -0.479937,0.03269 -0.716666,0.0048 -0.369857,-0.04364 -0.760825,-0.0058 -1.133334,-0.02208 -0.8476259,-0.03712 -1.7140311,-0.108503 -2.5499997,-0.26601 L 6.546353,29.284198 c 1.4002797,0.263829 2.8474019,0.315475 4.266667,0.350244 2.08949,0.05119 4.178678,-0.02359 6.25,-0.314738 0.841863,-0.118332 1.676789,-0.286273 2.483333,-0.557714 0.438837,-0.147691 0.925712,-0.34845 1.230902,-0.71119 0.254163,-0.30209 0.242224,-0.763452 0.205247,-1.133268 -0.0849,-0.849083 -0.343325,-1.684445 -0.635262,-2.483334 C 19.433804,21.934563 18.209282,19.559195 16.8632,17.267532 16.488267,16.629219 16.095886,16.000165 15.685242,15.384198 15.497669,15.10284 15.317027,14.743149 15.06302,14.517532 Z"
           id="path40" /><path
           style="fill:url(#linearGradient49);fill-opacity:1;stroke:none"
           d="m 6.596353,29.300865 v -0.01667 h -0.05 c 0.3610387,-0.496966 0.6319443,-1.08518 0.9404063,-1.616666 0.1756439,-0.302639 0.437381,-0.633136 0.542927,-0.966667 -0.4806015,-0.162746 -0.9858775,-0.200492 -1.45,-0.429269 -0.1983658,-0.09778 -0.4147252,-0.222767 -0.5273407,-0.420731 -0.1210022,-0.212708 -0.1032743,-0.499091 -0.075244,-0.733333 0.062667,-0.523692 0.2210052,-1.039288 0.4016978,-1.533334 0.7215133,-1.972747 1.7118545,-3.89953 2.8730967,-5.65 0.5144094,-0.775427 1.0337799,-1.571637 1.6944569,-2.233333 0.23067,-0.231026 0.568188,-0.587098 0.916667,-0.61511 0.265152,-0.02131 0.506693,0.166521 0.7,0.32536 0.339505,0.27897 0.620457,0.618396 0.898598,0.956417 0.114445,0.139082 0.211799,0.319691 0.351402,0.433333 -0.05196,-0.10391 0.162242,-0.361465 0.233333,-0.483333 0.247463,-0.424223 0.485427,-0.858352 0.733333,-1.283334 0.07409,-0.127013 0.143282,-0.25753 0.216667,-0.383333 0.03232,-0.0554 0.06626,-0.125103 0.1,-0.116667 -0.18113,-0.317961 -0.434966,-0.611692 -0.659594,-0.9 -0.443032,-0.568628 -0.909624,-1.131002 -1.457073,-1.602173 -0.315273,-0.271344 -0.724031,-0.592492 -1.166666,-0.544934 -0.524031,0.0563 -1.016172,0.563143 -1.366667,0.913774 -0.9498494,0.950214 -1.7131927,2.086456 -2.4555556,3.2 -0.9398718,1.409807 -1.7722326,2.895524 -2.5487524,4.4 -0.7503855,1.453841 -1.4671879,2.948747 -1.9957434,4.5 -0.2650008,0.777749 -0.5148661,1.562791 -0.6027134,2.383333 -0.037111,0.346633 -0.047144,0.75555 0.1340406,1.066667 0.1974945,0.339123 0.6057336,0.532092 0.9520576,0.680825 0.8314535,0.357078 1.7712219,0.555418 2.6666667,0.669175 z"
           id="path39" /></g><path
         d="m 10.147312,12.139408 c -0.0082,-1.81e-4 -0.01611,0.0014 -0.02316,0.005 -0.395712,0.243226 -0.9731896,0.581762 -1.1099879,0.996141 -0.042778,0.13722 -0.02386,0.187999 -5.183e-4,0.298608 0.038687,0.133085 0.119532,0.307561 0.2095262,0.452548 0.058296,0.09391 0.2502829,0.341728 0.2647589,0.341728 0.2659291,-0.16879 0.5506131,-0.363889 0.7646991,-0.575129 v -0.71003 c 0,-0.600492 -0.0063,-0.719098 -0.04062,-0.768085 -0.01291,-0.02458 -0.04005,-0.04041 -0.06467,-0.04079 z m -1.237558,1.19551 c -0.013999,2.89e-4 -0.036027,0.05303 -0.048998,0.117233 -0.033641,0.166484 -0.1833999,0.759353 -0.2499703,0.989908 -0.054045,0.18717 -0.07318,0.388164 -0.04187,0.438826 0.023201,0.03756 0.4167783,0.179881 0.9799269,0.354379 0.2732695,0.08467 0.3164355,0.08299 0.3714809,-0.01372 0.083866,-0.147341 0.096908,-0.12177 -0.4292056,-0.840243 C 9.0758395,13.81419 9.020737,13.718287 8.9642747,13.464627 8.9483224,13.392958 8.9237632,13.334618 8.9097557,13.334922 Z m 2.870114,0.173892 c -0.01979,-3.97e-4 -0.04313,7.64e-4 -0.06753,0.0035 -0.168729,0.01946 -0.77875,0.06013 -1.018588,0.06806 -0.194713,0.0065 -0.391945,0.05043 -0.430456,0.09586 -0.02854,0.03367 -0.04226,0.451887 -0.03421,1.041394 0.0039,0.286061 0.01893,0.326567 0.127927,0.349031 0.166042,0.03422 0.145796,0.05461 0.666526,-0.667774 0.411026,-0.570201 0.485137,-0.652213 0.708931,-0.784297 0.06324,-0.03732 0.111162,-0.07871 0.106547,-0.09193 -0.0029,-0.0082 -0.02618,-0.0132 -0.05915,-0.01391 z m 0.276339,0.0531 c -0.143727,0.0017 -0.186193,0.03539 -0.284176,0.09175 -0.114617,0.07792 -0.255699,0.208665 -0.365784,0.339055 -0.07131,0.08446 -0.247492,0.34364 -0.243019,0.357405 0.242704,0.200756 0.516171,0.411323 0.783227,0.549652 l 0.675258,-0.219502 c 0.571101,-0.185566 0.681855,-0.228216 0.71784,-0.275987 0.0194,-0.01987 0.02614,-0.05057 0.01889,-0.07412 -0.0024,-0.0078 -0.0063,-0.01489 -0.01193,-0.02049 -0.353601,-0.301182 -0.853922,-0.745716 -1.290295,-0.74777 z m -4.893215,0.89387 c -0.013271,0 -0.023486,0.0015 -0.032428,0.0043 -0.027368,0.0047 -0.050823,0.0257 -0.058794,0.04899 -0.00272,0.0077 -0.00375,0.0157 -0.00251,0.02351 0.1090411,0.451506 0.252523,1.10537 0.6043503,1.363525 0.1172828,0.08308 0.1714193,0.08083 0.2838201,0.09283 0.1385277,0.0044 0.3294288,-0.01872 0.4951316,-0.05951 0.1073264,-0.02642 0.4024615,-0.132331 0.4069354,-0.146097 -0.078355,-0.305083 -0.175979,-0.636223 -0.3107258,-0.905106 L 7.8735225,14.658879 C 7.391654,14.50232 7.2346291,14.455909 7.1629837,14.455777 Z m 4.760301,0.461275 c -0.07987,-3.24e-4 -0.465916,0.112798 -0.98919,0.290771 -0.270852,0.09212 -0.304689,0.118887 -0.292375,0.229482 0.01876,0.168493 -0.0068,0.155411 0.841134,0.427426 0.669309,0.21471 0.770185,0.260031 0.96496,0.432059 0.05503,0.04861 0.109115,0.08135 0.120263,0.07287 0.01115,-0.0085 -0.002,-0.06408 -0.02923,-0.123649 -0.07063,-0.15446 -0.298016,-0.722208 -0.379675,-0.947855 -0.0663,-0.183195 -0.168848,-0.356916 -0.223957,-0.3795 -0.0026,-10e-4 -0.0066,-0.0015 -0.01193,-0.0015 z m -2.1271512,0.67829 c -0.098673,-2.34e-4 -0.2927426,0.06528 -0.794988,0.230547 -0.6676857,0.219708 -0.7759346,0.242406 -1.0346213,0.217722 -0.073099,-0.007 -0.1361828,-0.0017 -0.1402206,0.01176 -0.00407,0.0134 0.039335,0.05067 0.096387,0.08285 0.1479384,0.08344 0.6654193,0.409035 0.8641166,0.54359 0.1613078,0.109242 0.3465801,0.189621 0.4044407,0.175496 0.042882,-0.01046 0.299825,-0.340764 0.6398008,-0.822425 0.1649779,-0.233729 0.176705,-0.275348 0.1017394,-0.357583 -0.046402,-0.05089 -0.069145,-0.08179 -0.1366561,-0.08196 z m 0.6469302,0.204712 c -0.02029,5.87e-4 -0.04147,0.0077 -0.06682,0.01924 -0.154451,0.06991 -0.14996,0.04149 -0.146633,0.931997 0.0026,0.702899 -0.0092,0.812973 -0.112602,1.051372 -0.02922,0.06736 -0.04376,0.128852 -0.03225,0.136834 0.0115,0.008 0.06045,-0.02161 0.108685,-0.06592 0.125069,-0.114914 0.594567,-0.506666 0.783938,-0.654057 0.153744,-0.119659 0.287391,-0.270933 0.291839,-0.330323 0.0034,-0.04402 -0.231362,-0.390513 -0.58439,-0.862691 -0.128479,-0.171844 -0.180874,-0.228317 -0.241773,-0.226452 z m 1.131189,0.181911 c -8.84e-4,1.8e-4 -0.0015,2.7e-4 -0.002,5.17e-4 -0.115931,0.292862 -0.231579,0.618164 -0.280614,0.914896 l 0.41727,0.574414 c 0.352959,0.485805 0.427887,0.577935 0.48444,0.597399 0.0249,0.0123 0.0561,0.0092 0.07626,-0.005 0.0067,-0.0048 0.01226,-0.01059 0.01586,-0.01763 0.177172,-0.42937 0.445397,-1.04266 0.312506,-1.458309 -0.04606,-0.136163 -0.09125,-0.166179 -0.17514,-0.241952 -0.109543,-0.08495 -0.277436,-0.178467 -0.435462,-0.242866 -0.09916,-0.04041 -0.384774,-0.124067 -0.413174,-0.121514 z M 9.6605546,16.85642 c -0.1627109,8.03e-4 -0.3232866,0.0097 -0.4719667,0.03224 l -0.4174484,0.57442 c -0.3529596,0.485806 -0.4174815,0.585525 -0.418519,0.645325 -0.0041,0.02747 0.00866,0.05613 0.028328,0.0709 0.00659,0.0049 0.013919,0.0084 0.021731,0.0096 0.4631067,0.03582 1.1291938,0.101426 1.4834309,-0.153405 0.1152676,-0.08587 0.1298876,-0.138225 0.1760316,-0.24142 0.04692,-0.130406 0.08397,-0.319053 0.09639,-0.489249 0.008,-0.11024 -0.0017,-0.423548 -0.01336,-0.432061 -0.1571777,-0.0099 -0.3219066,-0.01717 -0.4846199,-0.0164 z"
         id="path12966-0"
         style="fill:#ffffff;fill-opacity:1;fill-rule:nonzero;stroke:none;stroke-width:0.0180302" /></g></g></svg>
